<svg xmlns="http://www.w3.org/2000/svg" viewBox="0 0 1600 1000" width="1600" height="1000">
<rect width="1600" height="1000" fill="#ffffff"/>
<polygon points="770.8,780.9 799.7,786.3 799.7,766.5 770.8,761.3" fill="rgb(50,59,64)" fill-opacity="0.85" stroke="rgba(0,0,0,0.17)" stroke-width="1"/>
<polygon points="770.8,780.9 730.2,802.6 730.1,782.1 770.8,761.3" fill="rgb(56,66,71)" fill-opacity="0.85" stroke="rgba(0,0,0,0.17)" stroke-width="1"/>
<polygon points="770.8,780.9 730.2,802.6 759.9,808.4 799.7,786.3" fill="rgb(43,51,55)" fill-opacity="0.85" stroke="rgba(0,0,0,0.17)" stroke-width="1"/>
<polygon points="770.8,761.3 730.1,782.1 759.8,787.8 799.7,766.5" fill="rgb(70,82,89)" fill-opacity="0.85" stroke="rgba(0,0,0,0.17)" stroke-width="1"/>
<polygon points="767.4,761.7 800.1,767.6 800.1,653.6 767.0,649.0" fill="rgb(67,80,88)" fill-opacity="0.85" stroke="rgba(0,0,0,0.17)" stroke-width="1"/>
<polygon points="767.4,761.7 745.8,772.8 745.3,657.6 767.0,649.0" fill="rgb(74,89,98)" fill-opacity="0.85" stroke="rgba(0,0,0,0.17)" stroke-width="1"/>
<polygon points="767.4,761.7 745.8,772.8 779.0,778.9 800.1,767.6" fill="rgb(58,69,76)" fill-opacity="0.85" stroke="rgba(0,0,0,0.17)" stroke-width="1"/>
<polygon points="765.3,647.4 807.2,653.1 807.3,516.3 764.9,512.7" fill="rgb(67,80,88)" fill-opacity="0.85" stroke="rgba(0,0,0,0.17)" stroke-width="1"/>
<polygon points="765.3,647.4 738.0,658.0 737.2,519.4 764.9,512.7" fill="rgb(74,89,98)" fill-opacity="0.85" stroke="rgba(0,0,0,0.17)" stroke-width="1"/>
<polygon points="765.3,647.4 738.0,658.0 780.7,664.1 807.2,653.1" fill="rgb(58,69,76)" fill-opacity="0.85" stroke="rgba(0,0,0,0.17)" stroke-width="1"/>
<polygon points="799.7,786.3 759.9,808.4 759.8,787.8 799.7,766.5" fill="rgb(60,71,77)" fill-opacity="0.85" stroke="rgba(0,0,0,0.17)" stroke-width="1"/>
<polygon points="728.4,553.2 744.6,554.8 744.4,511.0 728.2,509.6" fill="rgb(156,132,115)" fill-opacity="0.85" stroke="rgba(0,0,0,0.17)" stroke-width="1"/>
<polygon points="728.4,553.2 714.0,557.2 713.6,513.0 728.2,509.6" fill="rgb(174,147,128)" fill-opacity="0.85" stroke="rgba(0,0,0,0.17)" stroke-width="1"/>
<polygon points="728.4,553.2 714.0,557.2 730.3,558.9 744.6,554.8" fill="rgb(135,114,99)" fill-opacity="0.85" stroke="rgba(0,0,0,0.17)" stroke-width="1"/>
<polygon points="767.0,649.0 745.3,657.6 778.8,662.3 800.1,653.6" fill="rgb(93,111,122)" fill-opacity="0.85" stroke="rgba(0,0,0,0.17)" stroke-width="1"/>
<polygon points="800.1,767.6 779.0,778.9 778.8,662.3 800.1,653.6" fill="rgb(80,95,105)" fill-opacity="0.85" stroke="rgba(0,0,0,0.17)" stroke-width="1"/>
<polygon points="766.3,511.3 870.9,520.2 871.4,439.0 766.1,433.0" fill="rgb(67,80,88)" fill-opacity="0.85" stroke="rgba(0,0,0,0.17)" stroke-width="1"/>
<polygon points="766.3,511.3 729.1,520.4 728.5,439.1 766.1,433.0" fill="rgb(74,89,98)" fill-opacity="0.85" stroke="rgba(0,0,0,0.17)" stroke-width="1"/>
<polygon points="766.3,511.3 729.1,520.4 836.4,530.0 870.9,520.2" fill="rgb(58,69,76)" fill-opacity="0.85" stroke="rgba(0,0,0,0.17)" stroke-width="1"/>
<polygon points="726.1,509.3 747.3,511.1 746.8,413.4 725.4,412.4" fill="rgb(156,132,115)" fill-opacity="0.85" stroke="rgba(0,0,0,0.17)" stroke-width="1"/>
<polygon points="726.1,509.3 710.7,512.9 709.9,414.4 725.4,412.4" fill="rgb(174,147,128)" fill-opacity="0.85" stroke="rgba(0,0,0,0.17)" stroke-width="1"/>
<polygon points="726.1,509.3 710.7,512.9 732.2,514.8 747.3,511.1" fill="rgb(135,114,99)" fill-opacity="0.85" stroke="rgba(0,0,0,0.17)" stroke-width="1"/>
<polygon points="728.2,509.6 713.6,513.0 730.0,514.4 744.4,511.0" fill="rgb(217,184,160)" fill-opacity="0.85" stroke="rgba(0,0,0,0.17)" stroke-width="1"/>
<polygon points="744.6,554.8 730.3,558.9 730.0,514.4 744.4,511.0" fill="rgb(187,158,138)" fill-opacity="0.85" stroke="rgba(0,0,0,0.17)" stroke-width="1"/>
<polygon points="824.0,790.8 854.0,796.4 854.1,776.2 824.0,770.8" fill="rgb(50,59,64)" fill-opacity="0.85" stroke="rgba(0,0,0,0.17)" stroke-width="1"/>
<polygon points="824.0,790.8 784.9,813.3 784.9,792.5 824.0,770.8" fill="rgb(56,66,71)" fill-opacity="0.85" stroke="rgba(0,0,0,0.17)" stroke-width="1"/>
<polygon points="824.0,790.8 784.9,813.3 815.8,819.4 854.0,796.4" fill="rgb(43,51,55)" fill-opacity="0.85" stroke="rgba(0,0,0,0.17)" stroke-width="1"/>
<polygon points="761.4,432.7 877.2,439.2 878.2,296.2 760.9,295.6" fill="rgb(103,122,129)" fill-opacity="0.85" stroke="rgba(0,0,0,0.17)" stroke-width="1"/>
<polygon points="761.4,432.7 722.9,438.8 722.0,296.1 760.9,295.6" fill="rgb(114,135,143)" fill-opacity="0.85" stroke="rgba(0,0,0,0.17)" stroke-width="1"/>
<polygon points="761.4,432.7 722.9,438.8 842.0,445.9 877.2,439.2" fill="rgb(89,105,111)" fill-opacity="0.85" stroke="rgba(0,0,0,0.17)" stroke-width="1"/>
<polygon points="764.9,512.7 737.2,519.4 780.4,523.3 807.3,516.3" fill="rgb(93,111,122)" fill-opacity="0.85" stroke="rgba(0,0,0,0.17)" stroke-width="1"/>
<polygon points="824.0,770.8 784.9,792.5 815.9,798.3 854.1,776.2" fill="rgb(70,82,89)" fill-opacity="0.85" stroke="rgba(0,0,0,0.17)" stroke-width="1"/>
<polygon points="766.1,433.0 728.5,439.1 836.7,445.5 871.4,439.0" fill="rgb(93,111,122)" fill-opacity="0.85" stroke="rgba(0,0,0,0.17)" stroke-width="1"/>
<polygon points="724.8,412.1 749.9,413.4 749.4,295.7 724.0,295.6" fill="rgb(103,122,129)" fill-opacity="0.85" stroke="rgba(0,0,0,0.17)" stroke-width="1"/>
<polygon points="724.8,412.1 706.8,414.5 705.8,295.8 724.0,295.6" fill="rgb(114,135,143)" fill-opacity="0.85" stroke="rgba(0,0,0,0.17)" stroke-width="1"/>
<polygon points="724.8,412.1 706.8,414.5 732.3,415.8 749.9,413.4" fill="rgb(89,105,111)" fill-opacity="0.85" stroke="rgba(0,0,0,0.17)" stroke-width="1"/>
<polygon points="820.6,771.2 854.7,777.3 855.3,661.1 820.9,656.4" fill="rgb(67,80,88)" fill-opacity="0.85" stroke="rgba(0,0,0,0.17)" stroke-width="1"/>
<polygon points="820.6,771.2 799.9,782.7 799.9,665.3 820.9,656.4" fill="rgb(74,89,98)" fill-opacity="0.85" stroke="rgba(0,0,0,0.17)" stroke-width="1"/>
<polygon points="820.6,771.2 799.9,782.7 834.5,789.1 854.7,777.3" fill="rgb(58,69,76)" fill-opacity="0.85" stroke="rgba(0,0,0,0.17)" stroke-width="1"/>
<polygon points="747.3,511.1 732.2,514.8 731.6,415.5 746.8,413.4" fill="rgb(187,158,138)" fill-opacity="0.85" stroke="rgba(0,0,0,0.17)" stroke-width="1"/>
<polygon points="725.4,412.4 709.9,414.4 731.6,415.5 746.8,413.4" fill="rgb(217,184,160)" fill-opacity="0.85" stroke="rgba(0,0,0,0.17)" stroke-width="1"/>
<polygon points="807.2,653.1 780.7,664.1 780.4,523.3 807.3,516.3" fill="rgb(80,95,105)" fill-opacity="0.85" stroke="rgba(0,0,0,0.17)" stroke-width="1"/>
<polygon points="745.8,772.8 779.0,778.9 778.8,662.3 745.3,657.6" fill="rgb(86,102,112)" fill-opacity="0.85" stroke="rgba(0,0,0,0.17)" stroke-width="1"/>
<polygon points="714.0,557.2 730.3,558.9 730.0,514.4 713.6,513.0" fill="rgb(200,169,147)" fill-opacity="0.85" stroke="rgba(0,0,0,0.17)" stroke-width="1"/>
<polygon points="818.9,654.7 862.4,660.6 863.2,521.1 819.1,517.3" fill="rgb(67,80,88)" fill-opacity="0.85" stroke="rgba(0,0,0,0.17)" stroke-width="1"/>
<polygon points="818.9,654.7 792.6,665.7 792.5,524.4 819.1,517.3" fill="rgb(74,89,98)" fill-opacity="0.85" stroke="rgba(0,0,0,0.17)" stroke-width="1"/>
<polygon points="818.9,654.7 792.6,665.7 837.0,672.0 862.4,660.6" fill="rgb(58,69,76)" fill-opacity="0.85" stroke="rgba(0,0,0,0.17)" stroke-width="1"/>
<polygon points="854.0,796.4 815.8,819.4 815.9,798.3 854.1,776.2" fill="rgb(60,71,77)" fill-opacity="0.85" stroke="rgba(0,0,0,0.17)" stroke-width="1"/>
<polygon points="710.7,512.9 732.2,514.8 731.6,415.5 709.9,414.4" fill="rgb(200,169,147)" fill-opacity="0.85" stroke="rgba(0,0,0,0.17)" stroke-width="1"/>
<polygon points="749.9,413.4 732.3,415.8 731.5,296.0 749.4,295.7" fill="rgb(123,145,154)" fill-opacity="0.85" stroke="rgba(0,0,0,0.17)" stroke-width="1"/>
<polygon points="760.9,295.6 722.0,296.1 842.5,296.8 878.2,296.2" fill="rgb(143,169,179)" fill-opacity="0.85" stroke="rgba(0,0,0,0.17)" stroke-width="1"/>
<polygon points="724.0,295.6 705.8,295.8 731.5,296.0 749.4,295.7" fill="rgb(143,169,179)" fill-opacity="0.85" stroke="rgba(0,0,0,0.17)" stroke-width="1"/>
<polygon points="820.9,656.4 799.9,665.3 834.8,670.2 855.3,661.1" fill="rgb(93,111,122)" fill-opacity="0.85" stroke="rgba(0,0,0,0.17)" stroke-width="1"/>
<polygon points="854.7,777.3 834.5,789.1 834.8,670.2 855.3,661.1" fill="rgb(80,95,105)" fill-opacity="0.85" stroke="rgba(0,0,0,0.17)" stroke-width="1"/>
<polygon points="738.0,658.0 780.7,664.1 780.4,523.3 737.2,519.4" fill="rgb(86,102,112)" fill-opacity="0.85" stroke="rgba(0,0,0,0.17)" stroke-width="1"/>
<polygon points="706.8,414.5 732.3,415.8 731.5,296.0 705.8,295.8" fill="rgb(132,155,165)" fill-opacity="0.85" stroke="rgba(0,0,0,0.17)" stroke-width="1"/>
<polygon points="819.1,517.3 792.5,524.4 837.5,528.4 863.2,521.1" fill="rgb(93,111,122)" fill-opacity="0.85" stroke="rgba(0,0,0,0.17)" stroke-width="1"/>
<polygon points="730.2,802.6 759.9,808.4 759.8,787.8 730.1,782.1" fill="rgb(64,75,82)" fill-opacity="0.85" stroke="rgba(0,0,0,0.17)" stroke-width="1"/>
<polygon points="862.4,660.6 837.0,672.0 837.5,528.4 863.2,521.1" fill="rgb(80,95,105)" fill-opacity="0.85" stroke="rgba(0,0,0,0.17)" stroke-width="1"/>
<polygon points="799.9,782.7 834.5,789.1 834.8,670.2 799.9,665.3" fill="rgb(86,102,112)" fill-opacity="0.85" stroke="rgba(0,0,0,0.17)" stroke-width="1"/>
<polygon points="792.5,273.2 843.2,273.1 843.6,189.0 792.4,190.7" fill="rgb(156,132,115)" fill-opacity="0.85" stroke="rgba(0,0,0,0.17)" stroke-width="1"/>
<polygon points="792.5,273.2 755.9,272.9 755.5,187.0 792.4,190.7" fill="rgb(174,147,128)" fill-opacity="0.85" stroke="rgba(0,0,0,0.17)" stroke-width="1"/>
<polygon points="792.5,273.2 755.9,272.9 808.0,272.7 843.2,273.1" fill="rgb(135,114,99)" fill-opacity="0.85" stroke="rgba(0,0,0,0.17)" stroke-width="1"/>
<polygon points="870.9,520.2 836.4,530.0 836.7,445.5 871.4,439.0" fill="rgb(80,95,105)" fill-opacity="0.85" stroke="rgba(0,0,0,0.17)" stroke-width="1"/>
<polygon points="729.1,520.4 836.4,530.0 836.7,445.5 728.5,439.1" fill="rgb(86,102,112)" fill-opacity="0.85" stroke="rgba(0,0,0,0.17)" stroke-width="1"/>
<polygon points="792.4,190.7 755.5,187.0 808.0,185.2 843.6,189.0" fill="rgb(217,184,160)" fill-opacity="0.85" stroke="rgba(0,0,0,0.17)" stroke-width="1"/>
<polygon points="792.6,665.7 837.0,672.0 837.5,528.4 792.5,524.4" fill="rgb(86,102,112)" fill-opacity="0.85" stroke="rgba(0,0,0,0.17)" stroke-width="1"/>
<polygon points="722.9,438.8 842.0,445.9 842.5,296.8 722.0,296.1" fill="rgb(132,155,165)" fill-opacity="0.85" stroke="rgba(0,0,0,0.17)" stroke-width="1"/>
<polygon points="794.9,296.0 819.1,296.1 819.1,273.2 794.9,273.2" fill="rgb(156,132,115)" fill-opacity="0.85" stroke="rgba(0,0,0,0.17)" stroke-width="1"/>
<polygon points="794.9,296.0 780.8,296.2 780.7,273.1 794.9,273.2" fill="rgb(174,147,128)" fill-opacity="0.85" stroke="rgba(0,0,0,0.17)" stroke-width="1"/>
<polygon points="794.9,296.0 780.8,296.2 805.2,296.3 819.1,296.1" fill="rgb(135,114,99)" fill-opacity="0.85" stroke="rgba(0,0,0,0.17)" stroke-width="1"/>
<polygon points="877.2,439.2 842.0,445.9 842.5,296.8 878.2,296.2" fill="rgb(123,145,154)" fill-opacity="0.85" stroke="rgba(0,0,0,0.17)" stroke-width="1"/>
<polygon points="784.9,813.3 815.8,819.4 815.9,798.3 784.9,792.5" fill="rgb(64,75,82)" fill-opacity="0.85" stroke="rgba(0,0,0,0.17)" stroke-width="1"/>
<polygon points="794.9,273.2 780.7,273.1 805.2,273.0 819.1,273.2" fill="rgb(217,184,160)" fill-opacity="0.85" stroke="rgba(0,0,0,0.17)" stroke-width="1"/>
<polygon points="843.2,273.1 808.0,272.7 808.0,185.2 843.6,189.0" fill="rgb(187,158,138)" fill-opacity="0.85" stroke="rgba(0,0,0,0.17)" stroke-width="1"/>
<polygon points="871.9,567.9 889.9,569.7 890.3,523.6 872.2,522.0" fill="rgb(156,132,115)" fill-opacity="0.85" stroke="rgba(0,0,0,0.17)" stroke-width="1"/>
<polygon points="871.9,567.9 858.9,572.4 859.2,525.8 872.2,522.0" fill="rgb(174,147,128)" fill-opacity="0.85" stroke="rgba(0,0,0,0.17)" stroke-width="1"/>
<polygon points="871.9,567.9 858.9,572.4 877.1,574.3 889.9,569.7" fill="rgb(135,114,99)" fill-opacity="0.85" stroke="rgba(0,0,0,0.17)" stroke-width="1"/>
<polygon points="869.8,521.7 893.5,523.7 894.3,420.7 870.5,419.5" fill="rgb(156,132,115)" fill-opacity="0.85" stroke="rgba(0,0,0,0.17)" stroke-width="1"/>
<polygon points="869.8,521.7 856.0,525.6 856.5,421.8 870.5,419.5" fill="rgb(174,147,128)" fill-opacity="0.85" stroke="rgba(0,0,0,0.17)" stroke-width="1"/>
<polygon points="869.8,521.7 856.0,525.6 879.9,527.8 893.5,523.7" fill="rgb(135,114,99)" fill-opacity="0.85" stroke="rgba(0,0,0,0.17)" stroke-width="1"/>
<polygon points="872.2,522.0 859.2,525.8 877.4,527.4 890.3,523.6" fill="rgb(217,184,160)" fill-opacity="0.85" stroke="rgba(0,0,0,0.17)" stroke-width="1"/>
<polygon points="819.1,296.1 805.2,296.3 805.2,273.0 819.1,273.2" fill="rgb(187,158,138)" fill-opacity="0.85" stroke="rgba(0,0,0,0.17)" stroke-width="1"/>
<polygon points="889.9,569.7 877.1,574.3 877.4,527.4 890.3,523.6" fill="rgb(187,158,138)" fill-opacity="0.85" stroke="rgba(0,0,0,0.17)" stroke-width="1"/>
<polygon points="869.5,419.3 897.5,420.6 898.6,296.5 870.3,296.3" fill="rgb(103,122,129)" fill-opacity="0.85" stroke="rgba(0,0,0,0.17)" stroke-width="1"/>
<polygon points="869.5,419.3 853.3,421.9 853.9,296.6 870.3,296.3" fill="rgb(114,135,143)" fill-opacity="0.85" stroke="rgba(0,0,0,0.17)" stroke-width="1"/>
<polygon points="869.5,419.3 853.3,421.9 881.7,423.4 897.5,420.6" fill="rgb(89,105,111)" fill-opacity="0.85" stroke="rgba(0,0,0,0.17)" stroke-width="1"/>
<polygon points="893.5,523.7 879.9,527.8 880.7,423.1 894.3,420.7" fill="rgb(187,158,138)" fill-opacity="0.85" stroke="rgba(0,0,0,0.17)" stroke-width="1"/>
<polygon points="780.8,296.2 805.2,296.3 805.2,273.0 780.7,273.1" fill="rgb(200,169,147)" fill-opacity="0.85" stroke="rgba(0,0,0,0.17)" stroke-width="1"/>
<polygon points="870.5,419.5 856.5,421.8 880.7,423.1 894.3,420.7" fill="rgb(217,184,160)" fill-opacity="0.85" stroke="rgba(0,0,0,0.17)" stroke-width="1"/>
<polygon points="858.9,572.4 877.1,574.3 877.4,527.4 859.2,525.8" fill="rgb(200,169,147)" fill-opacity="0.85" stroke="rgba(0,0,0,0.17)" stroke-width="1"/>
<polygon points="856.0,525.6 879.9,527.8 880.7,423.1 856.5,421.8" fill="rgb(200,169,147)" fill-opacity="0.85" stroke="rgba(0,0,0,0.17)" stroke-width="1"/>
<polygon points="897.5,420.6 881.7,423.4 882.7,296.8 898.6,296.5" fill="rgb(123,145,154)" fill-opacity="0.85" stroke="rgba(0,0,0,0.17)" stroke-width="1"/>
<polygon points="755.9,272.9 808.0,272.7 808.0,185.2 755.5,187.0" fill="rgb(200,169,147)" fill-opacity="0.85" stroke="rgba(0,0,0,0.17)" stroke-width="1"/>
<polygon points="870.3,296.3 853.9,296.6 882.7,296.8 898.6,296.5" fill="rgb(143,169,179)" fill-opacity="0.85" stroke="rgba(0,0,0,0.17)" stroke-width="1"/>
<polygon points="853.3,421.9 881.7,423.4 882.7,296.8 853.9,296.6" fill="rgb(132,155,165)" fill-opacity="0.85" stroke="rgba(0,0,0,0.17)" stroke-width="1"/>
<polygon points="776.1,246.6 787.1,246.4 787.1,230.2 776.1,230.4" fill="rgb(156,132,115)" fill-opacity="0.85" stroke="rgba(0,0,0,0.17)" stroke-width="1"/>
<polygon points="776.1,246.6 770.4,246.4 770.3,230.1 776.1,230.4" fill="rgb(174,147,128)" fill-opacity="0.85" stroke="rgba(0,0,0,0.17)" stroke-width="1"/>
<polygon points="776.1,246.6 770.4,246.4 781.4,246.2 787.1,246.4" fill="rgb(135,114,99)" fill-opacity="0.85" stroke="rgba(0,0,0,0.17)" stroke-width="1"/>
<polygon points="776.1,230.4 770.3,230.1 781.4,229.9 787.1,230.2" fill="rgb(217,184,160)" fill-opacity="0.85" stroke="rgba(0,0,0,0.17)" stroke-width="1"/>
<polygon points="787.1,246.4 781.4,246.2 781.4,229.9 787.1,230.2" fill="rgb(187,158,138)" fill-opacity="0.85" stroke="rgba(0,0,0,0.17)" stroke-width="1"/>
<polygon points="770.4,246.4 781.4,246.2 781.4,229.9 770.3,230.1" fill="rgb(200,169,147)" fill-opacity="0.85" stroke="rgba(0,0,0,0.17)" stroke-width="1"/>
<polyline points="0.0,30.8 236.1,0.0" fill="none" stroke="#cb6562" stroke-opacity="1" stroke-width="2" stroke-linecap="round"/>
<polyline points="0.0,92.0 933.7,0.0" fill="none" stroke="#cb6562" stroke-opacity="1" stroke-width="2" stroke-linecap="round"/>
<polyline points="0.0,152.9 1600.0,45.9" fill="none" stroke="#cb6562" stroke-opacity="1" stroke-width="2" stroke-linecap="round"/>
<polyline points="0.0,213.5 1600.0,157.0" fill="none" stroke="#cb6562" stroke-opacity="1" stroke-width="2" stroke-linecap="round"/>
<polyline points="0.0,274.0 1600.0,267.8" fill="none" stroke="#cb6562" stroke-opacity="1" stroke-width="2" stroke-linecap="round"/>
<polyline points="0.0,334.4 1600.0,378.6" fill="none" stroke="#cb6562" stroke-opacity="1" stroke-width="2" stroke-linecap="round"/>
<polyline points="0.0,395.0 1600.0,489.6" fill="none" stroke="#cb6562" stroke-opacity="1" stroke-width="2" stroke-linecap="round"/>
<polyline points="0.0,455.8 1600.0,601.0" fill="none" stroke="#cb6562" stroke-opacity="1" stroke-width="2" stroke-linecap="round"/>
<polyline points="0.0,516.9 1600.0,713.1" fill="none" stroke="#cb6562" stroke-opacity="1" stroke-width="2" stroke-linecap="round"/>
<polyline points="0.0,578.5 1600.0,826.0" fill="none" stroke="#cb6562" stroke-opacity="1" stroke-width="2" stroke-linecap="round"/>
<polyline points="0.0,640.7 1600.0,940.0" fill="none" stroke="#cb6562" stroke-opacity="1" stroke-width="2" stroke-linecap="round"/>
<polyline points="0.0,703.7 1347.9,1000.0" fill="none" stroke="#cb6562" stroke-opacity="1" stroke-width="2" stroke-linecap="round"/>
<polyline points="0.0,767.5 918.7,1000.0" fill="none" stroke="#cb6562" stroke-opacity="1" stroke-width="2" stroke-linecap="round"/>
<polyline points="0.0,832.3 584.5,1000.0" fill="none" stroke="#cb6562" stroke-opacity="1" stroke-width="2" stroke-linecap="round"/>
<polyline points="0.0,898.4 316.4,1000.0" fill="none" stroke="#cb6562" stroke-opacity="1" stroke-width="2" stroke-linecap="round"/>
<polyline points="0.0,965.7 96.1,1000.0" fill="none" stroke="#cb6562" stroke-opacity="1" stroke-width="2" stroke-linecap="round"/>
<polyline points="1600.0,738.2 1538.7,1000.0" fill="none" stroke="#608cb0" stroke-opacity="1" stroke-width="2" stroke-linecap="round"/>
<polyline points="1600.0,538.3 1407.9,1000.0" fill="none" stroke="#608cb0" stroke-opacity="1" stroke-width="2" stroke-linecap="round"/>
<polyline points="1600.0,452.4 1257.6,1000.0" fill="none" stroke="#608cb0" stroke-opacity="1" stroke-width="2" stroke-linecap="round"/>
<polyline points="1600.0,402.5 1072.6,1000.0" fill="none" stroke="#608cb0" stroke-opacity="1" stroke-width="2" stroke-linecap="round"/>
<polyline points="1600.0,368.4 824.1,1000.0" fill="none" stroke="#608cb0" stroke-opacity="1" stroke-width="2" stroke-linecap="round"/>
<polyline points="1600.0,342.4 448.3,1000.0" fill="none" stroke="#608cb0" stroke-opacity="1" stroke-width="2" stroke-linecap="round"/>
<polyline points="0.0,912.9 1600.0,320.9" fill="none" stroke="#608cb0" stroke-opacity="1" stroke-width="2" stroke-linecap="round"/>
<polyline points="0.0,609.5 1600.0,301.9" fill="none" stroke="#608cb0" stroke-opacity="1" stroke-width="2" stroke-linecap="round"/>
<polyline points="0.0,324.9 1600.0,284.1" fill="none" stroke="#608cb0" stroke-opacity="1" stroke-width="2" stroke-linecap="round"/>
<polyline points="0.0,42.7 1600.0,266.4" fill="none" stroke="#608cb0" stroke-opacity="1" stroke-width="2" stroke-linecap="round"/>
<polyline points="1600.0,247.9 807.9,0.0" fill="none" stroke="#608cb0" stroke-opacity="1" stroke-width="2" stroke-linecap="round"/>
<polyline points="1600.0,227.4 1149.9,0.0" fill="none" stroke="#608cb0" stroke-opacity="1" stroke-width="2" stroke-linecap="round"/>
<polyline points="1600.0,203.1 1322.8,0.0" fill="none" stroke="#608cb0" stroke-opacity="1" stroke-width="2" stroke-linecap="round"/>
<polyline points="1600.0,172.0 1431.8,0.0" fill="none" stroke="#608cb0" stroke-opacity="1" stroke-width="2" stroke-linecap="round"/>
<polyline points="1600.0,128.3 1510.4,0.0" fill="none" stroke="#608cb0" stroke-opacity="1" stroke-width="2" stroke-linecap="round"/>
<polyline points="1600.0,57.4 1572.6,0.0" fill="none" stroke="#608cb0" stroke-opacity="1" stroke-width="2" stroke-linecap="round"/>
<polyline points="0.0,35.7 66.9,1000.0" fill="none" stroke="#669965" stroke-opacity="1" stroke-width="2" stroke-linecap="round"/>
<polyline points="143.8,0.0 200.5,1000.0" fill="none" stroke="#669965" stroke-opacity="1" stroke-width="2" stroke-linecap="round"/>
<polyline points="289.8,0.0 333.9,1000.0" fill="none" stroke="#669965" stroke-opacity="1" stroke-width="2" stroke-linecap="round"/>
<polyline points="435.7,0.0 467.2,1000.0" fill="none" stroke="#669965" stroke-opacity="1" stroke-width="2" stroke-linecap="round"/>
<polyline points="581.5,0.0 600.4,1000.0" fill="none" stroke="#669965" stroke-opacity="1" stroke-width="2" stroke-linecap="round"/>
<polyline points="727.2,0.0 733.5,1000.0" fill="none" stroke="#669965" stroke-opacity="1" stroke-width="2" stroke-linecap="round"/>
<polyline points="872.8,0.0 866.5,1000.0" fill="none" stroke="#669965" stroke-opacity="1" stroke-width="2" stroke-linecap="round"/>
<polyline points="1018.5,0.0 999.6,1000.0" fill="none" stroke="#669965" stroke-opacity="1" stroke-width="2" stroke-linecap="round"/>
<polyline points="1164.3,0.0 1132.8,1000.0" fill="none" stroke="#669965" stroke-opacity="1" stroke-width="2" stroke-linecap="round"/>
<polyline points="1310.2,0.0 1266.1,1000.0" fill="none" stroke="#669965" stroke-opacity="1" stroke-width="2" stroke-linecap="round"/>
<polyline points="1456.2,0.0 1399.5,1000.0" fill="none" stroke="#669965" stroke-opacity="1" stroke-width="2" stroke-linecap="round"/>
<polyline points="1600.0,35.7 1533.1,1000.0" fill="none" stroke="#669965" stroke-opacity="1" stroke-width="2" stroke-linecap="round"/>
<polyline points="0.0,281.4 1600.0,281.4" fill="none" stroke="#b77728" stroke-opacity="1" stroke-width="2" stroke-linecap="round" stroke-dasharray="8,5"/>
</svg>
